<svg xmlns="http://www.w3.org/2000/svg" viewBox="0 0 600 400" preserveAspectRatio="xMidYMid meet">
  <defs>
    <clipPath id="a">
      <path d="M1 1h548v309H1z"/>
    </clipPath>
  </defs>
  <path fill="#fff" d="M40 10h550v311H40z"/>
  <path fill="none" stroke="silver" d="M40 321.5h550m-550-78h550m-550-77h550m-550-78h550M40 9.5h550" />
  <path fill="none" stroke="#000" stroke-width="2" d="M40 10h550v311H40z"/>
  <path fill="none" stroke="#C0D0E0" d="M222.5 321v10m184-10v10m184-10v10m-551-10v10m.5-9.5h550m-550 0H30m10-78H30m10-77H30m10-78H30m10-79H30" class="highcharts-axis"/>
  <g>
    <g clip-path="url(#a)" transform="translate(40 10)">
      <rect width="183" height="295" y="17" fill="#b432b2" rx="0" ry="0"/>
      <rect width="184" height="78" x="183" y="234" fill="#12ab14" rx="0" ry="0"/>
      <rect width="183" height="121" x="367" y="191" fill="#DDDF00" rx="0" ry="0"/>
    </g>
  </g>
  <g>
    <text x="5" y="15" transform="translate(119 27)">
      <tspan>76</tspan>
    </text>
    <text x="5" y="15" transform="translate(303 221)">
      <tspan>20</tspan>
    </text>
    <text x="5" y="15" transform="translate(486 178)">
      <tspan>31</tspan>
    </text>
  </g>
  <g text-anchor="middle">
    <text x="131.7" y="339">
      male
    </text>
    <text x="315" y="339">
      female
    </text>
    <text x="498.3" y="339">
      <tspan>not given</tspan>
    </text>
  </g>
  <g text-anchor="end">
    <text x="25" y="325" style="text-transform:none;width:188px">
      <tspan>0</tspan>
    </text>
    <text x="25" y="247" style="text-transform:none;width:188px">
      <tspan>20</tspan>
    </text>
    <text x="25" y="169" style="text-transform:none;width:188px">
      <tspan>40</tspan>
    </text>
    <text x="25" y="91" style="text-transform:none;width:188px">
      <tspan>60</tspan>
    </text>
    <text x="25" y="14" style="text-transform:none;width:188px">
      <tspan>80</tspan>
    </text>
  </g>
</svg>
